# xmcd CD database file
# Copyright (C) 1996 Ti Kan
#
# Track frame offsets:
#  150
#  21190
#  37352
#  50755
#  62765
#  78342
#  91977
#  111652
#  123060
#  136757
#  149290
#  170615
#  186142
#  197797
#  210465
#  228320
#  243435
#  260227
#  273782
#  289545
#
# Disc length: 4020 seconds
#
# Revision: 1
# Processed by: cddbd v1.4b41PL1 Copyright (c) Steve Scherf et al.
# Submitted via: CDWizzard Release:4.13
#
DISCID=2b0fb214
DTITLE=Nashville's "Highliners" - 20 of Today's Country Hits
DYEAR=1900
DGENRE=
TTITLE0=Ain't Goin' Down (Till The Sun Comes Up)
TTITLE1=Rock My World (Little Country Girl)
TTITLE2=Indian Outlaw
TTITLE3=If Bubba Can Dane (I Can Too)
TTITLE4=I Feel Lucky
TTITLE5=All My Rowdy Friends (Are Coming Over Tonight)
TTITLE6=John Deere Green
TTITLE7=Holdin' Heaven
TTITLE8=Watermelon Crawl
TTITLE9=Be My Baby Tonight
TTITLE10=Fast As You
TTITLE11=American Honky-Tonk Bar Association
TTITLE12=Renegades, Rebels and Rogues
TTITLE13=Third Rock From The Sun
TTITLE14=He Thinks He'll Keep Her
TTITLE15=Workin' Man's Ph.D.
TTITLE16=Baby Likes To Rock It
TTITLE17=Money In The Bank
TTITLE18=Elvis and Andy
TTITLE19=Wink
EXTD=
EXTT0=
EXTT1=
EXTT2=
EXTT3=
EXTT4=
EXTT5=
EXTT6=
EXTT7=
EXTT8=
EXTT9=
EXTT10=
EXTT11=
EXTT12=
EXTT13=
EXTT14=
EXTT15=
EXTT16=
EXTT17=
EXTT18=
EXTT19=
PLAYORDER=
